<?xml version="1.0" standalone="no"?>
<!DOCTYPE svg PUBLIC "-//W3C//DTD SVG 20010904//EN"
 "http://www.w3.org/TR/2001/REC-SVG-20010904/DTD/svg10.dtd">
<svg version="1.0" xmlns="http://www.w3.org/2000/svg"
 width="700.000000pt" height="700.000000pt" viewBox="0 0 700.000000 700.000000"
 preserveAspectRatio="xMidYMid meet">
<metadata>
Created by potrace 1.11, written by Peter Selinger 2001-2013
</metadata>
<g transform="translate(0.000000,700.000000) scale(0.100000,-0.100000)"
fill="#000000" stroke="none">
<path d="M1370 6649 c0 -4 -9 -58 -20 -120 -18 -104 -39 -241 -55 -359 -3 -25
-8 -56 -10 -70 -5 -29 -43 -326 -50 -385 -2 -22 -9 -80 -15 -130 -17 -145 -19
-167 -25 -230 -3 -33 -8 -76 -10 -95 -3 -19 -7 -71 -11 -115 -3 -44 -7 -91 -9
-105 -2 -14 -7 -70 -10 -125 -3 -55 -8 -116 -10 -135 -4 -32 -8 -98 -20 -345
-2 -44 -7 -183 -11 -310 l-6 -230 -130 -255 c-72 -140 -157 -304 -188 -365
-100 -192 -204 -394 -310 -600 -56 -110 -126 -245 -155 -300 -29 -55 -110
-212 -180 -350 -70 -137 -132 -254 -136 -260 -5 -5 -9 -404 -9 -887 l0 -878
1124 0 c887 0 1126 3 1134 13 5 6 45 82 89 167 44 85 123 238 176 340 52 102
124 241 159 310 36 69 118 229 183 355 65 127 119 232 121 234 2 2 74 -28 161
-67 122 -54 430 -174 531 -207 8 -3 10 -17 7 -42 -20 -133 -25 -289 -13 -363
8 -49 35 -110 56 -126 58 -45 173 12 311 155 60 63 159 175 182 208 13 19 20
21 55 13 65 -15 372 -59 474 -67 52 -4 219 -8 370 -8 289 0 407 6 585 29 22 3
63 8 90 11 227 26 549 118 695 198 161 88 253 194 254 294 1 41 -4 57 -24 78
-43 47 -84 58 -215 61 -130 3 -136 4 -210 29 -153 52 -379 202 -570 380 -190
177 -362 356 -541 564 -16 19 -34 39 -39 45 -6 6 -65 79 -131 161 -369 459
-703 960 -883 1322 -83 168 -83 169 -96 348 -12 179 -46 507 -81 775 -24 185
-88 636 -99 690 -2 14 -7 39 -9 55 -19 114 -47 283 -50 300 -2 11 -19 104 -37
208 -19 103 -37 187 -40 187 -10 0 -125 -200 -193 -337 -222 -445 -385 -960
-436 -1378 -18 -146 -10 -135 -77 -119 -32 7 -74 16 -93 19 -19 3 -64 9 -100
15 -144 21 -512 2 -651 -35 -18 -4 -26 -2 -26 7 -1 120 -72 427 -154 673 -119
353 -306 724 -515 1020 -73 103 -103 143 -104 134z"/>
</g>
</svg>
