<svg xmlns="http://www.w3.org/2000/svg" viewBox="0 0 161.51 183.14"><defs><style>.cls-1{fill:#c4c4c4;}.cls-2{fill:none;}.cls-2,.cls-3{stroke:#000;stroke-miterlimit:10;}.cls-3{fill:#f90;}</style></defs><title>joinedAsset 5</title><g id="Layer_2" data-name="Layer 2"><g id="doggo_figma_merged"><path class="cls-1" d="M97.46,90.8l-6.25-13h.33l9.86,5.48Z"/><path class="cls-2" d="M72.08,44.1.44,182.71"/><path class="cls-2" d="M88,32.3C87,15,76,1.3,76,1.3s-4,22.5-4,43"/><line class="cls-2" x1="49.76" y1="182.91" x2="101.4" y2="82.98"/><path class="cls-2" d="M103,30.3a26.85,26.85,0,0,0-7.76-1,26,26,0,0,0-7.74,1"/><path class="cls-2" d="M91,77.3c17.47,10.85,32.48,14,44,14,12.46,0,20.77-2.37,23.94-5.08,1.66-1.42,2.34-2.76,1.92-3.78-.29-.68-1.18-1.44-3.79-1.2C146.22,82.22,122,49.3,118,38.3c-1-16.5-5-37-5-37s-9,13.71-10,31"/><path d="M94.39,67l-.94-.36a12.2,12.2,0,0,1,9.24-6.77l.18,1C97.64,61.82,95,65.31,94.39,67Z"/><path d="M111.15,57.74l-.74-.66a12.16,12.16,0,0,1,11.07-3l-.19,1C116.06,54.08,112.38,56.38,111.15,57.74Z"/><path class="cls-2" d="M156.51,87.62A3.23,3.23,0,0,1,154,85.3c-.33-1.4,1.05-3,2-4"/><path class="cls-3" d="M113.13,88A.57.57,0,0,1,113,88c-.76,4.27-.49,7.6.68,8.12.6.26,2.49.17,7.35-6Z"/></g></g></svg>