<svg width="380" height="572" viewBox="0 0 380 572" fill="none" xmlns="http://www.w3.org/2000/svg">
<path d="M277.331 144.716L267.326 123.906H267.854L283.639 132.678L277.331 144.716Z" fill="#C4C4C4"/>
<path d="M236.702 69.9608L0.941147 526.088" stroke="black" stroke-miterlimit="10"/>
<path d="M56.5443 571.629L283.639 132.198" stroke="black" stroke-miterlimit="10"/>
<path d="M262.187 51.0722C260.586 23.3794 242.977 1.44916 242.977 1.44916C242.977 1.44916 236.574 37.4659 236.574 70.2811" stroke="black" stroke-miterlimit="10"/>
<path d="M286.2 47.8708C282.159 46.7335 277.974 46.1942 273.777 46.27C269.59 46.1772 265.413 46.7169 261.387 47.8708" stroke="black" stroke-miterlimit="10"/>
<path d="M266.99 123.106C294.956 140.474 318.985 145.516 337.427 145.516C357.373 145.516 370.676 141.722 375.751 137.384C378.408 135.111 379.497 132.966 378.824 131.333C378.36 130.245 376.935 129.028 372.757 129.413C355.388 130.981 316.616 78.2849 310.212 60.6767C308.612 34.2644 302.208 1.44916 302.208 1.44916C302.208 1.44916 287.801 23.3954 286.2 51.0722" stroke="black" stroke-miterlimit="10"/>
<path d="M272.417 106.618L270.912 106.042C272.302 103.163 274.378 100.669 276.957 98.7794C279.536 96.8898 282.539 95.6623 285.704 95.2047L285.992 96.8054C277.619 98.3261 273.393 103.913 272.417 106.618Z" fill="black"/>
<path d="M299.247 91.795L298.062 90.7385C300.393 88.5421 303.23 86.9547 306.321 86.117C309.412 85.2793 312.662 85.2173 315.783 85.9363L315.479 87.5371C307.107 85.9363 301.216 89.618 299.247 91.795Z" fill="black"/>
<path d="M371.861 139.625C370.911 139.444 370.03 139 369.32 138.344C368.61 137.687 368.098 136.845 367.843 135.912C367.314 133.671 369.523 131.109 371.044 129.509" stroke="black" stroke-miterlimit="10"/>
<path d="M302.416 140.234C302.347 140.241 302.277 140.241 302.208 140.234C300.992 147.069 301.424 152.399 303.297 153.232C304.257 153.648 307.283 153.504 315.063 143.627L302.416 140.234Z" fill="#FF9900" stroke="black" stroke-miterlimit="10"/>
</svg>
